<?xml version="1.0" encoding="UTF-8"?>
<svg version="1.1" xmlns="http://www.w3.org/2000/svg" width="304" height="272">
<path d="M0 0 C100.32 0 200.64 0 304 0 C304 89.76 304 179.52 304 272 C203.68 272 103.36 272 0 272 C0 182.24 0 92.48 0 0 Z " fill="#FF3232" transform="translate(0,0)"/>
<path d="M0 0 C100.32 0 200.64 0 304 0 C304 89.76 304 179.52 304 272 C203.68 272 103.36 272 0 272 C0 182.24 0 92.48 0 0 Z M134 15 C131.52526173 15.62509422 129.04556189 16.22051174 126.5625 16.8125 C125.07943359 17.19341797 125.07943359 17.19341797 123.56640625 17.58203125 C121 18 121 18 119.19311523 17.41088867 C116.11756689 16.83467272 114.25160915 17.73086563 111.34375 18.84375 C110.23773438 19.2665625 109.13171875 19.689375 107.9921875 20.125 C106.26355469 20.805625 106.26355469 20.805625 104.5 21.5 C103.37851563 21.9228125 102.25703125 22.345625 101.1015625 22.78125 C94.15417957 25.4767704 87.9111797 28.63194734 81.63867188 32.66210938 C78.80912207 34.09678119 77.1237757 34.28552158 74 34 C73.89751953 34.85271484 73.89751953 34.85271484 73.79296875 35.72265625 C72.69041235 38.88911133 70.83793639 40.2593583 68.3125 42.4375 C67.40886719 43.22382812 66.50523438 44.01015625 65.57421875 44.8203125 C63.59825388 46.49343601 61.61947026 48.16155033 59.625 49.8125 C55.41569688 53.3202526 52.74127646 56.31354953 50.125 61.16796875 C48.95760242 63.06904329 47.66144744 64.51253042 46.125 66.125 C42.51514753 70.16114158 40.65381539 74.80528346 38.515625 79.734375 C37.12717991 82.72597319 35.57112708 85.32196895 33.75 88.0625 C30.88758059 92.63193515 30.02586599 96.81975199 29.421875 102.140625 C29 105 29 105 28.01538086 107.78393555 C26.98409596 111.05037364 26.58641338 113.90706845 26.33203125 117.31640625 C26.24373047 118.49267578 26.15542969 119.66894531 26.06445312 120.88085938 C25.98130859 122.09580078 25.89816406 123.31074219 25.8125 124.5625 C25.71775391 125.78130859 25.62300781 127.00011719 25.52539062 128.25585938 C24.96129537 135.67612174 24.96129537 135.67612174 26 143 C25.01 143.33 24.02 143.66 23 144 C22.68436818 149.26053037 23.33409063 152.44573816 26 157 C26.99 157 27.98 157 29 157 C29.12375 157.58523437 29.2475 158.17046875 29.375 158.7734375 C33.01172362 173.91129957 40.35730524 187.45740403 48.90722656 200.33740234 C49.83889183 201.75488235 50.73224785 203.1974198 51.6171875 204.64453125 C57.78296964 214.589903 66.68862501 221.85144901 75.97265625 228.75 C77.73013044 230.05620017 79.47490308 231.38060211 81.18359375 232.75 C105.00448677 251.76709547 138.0399098 256.37957142 167.4375 253.3125 C184.59957959 250.75903269 199.66238964 242.680769 215 235 C215 236.65 215 238.3 215 240 C215.66 240 216.32 240 217 240 C217.66 241.32 218.32 242.64 219 244 C219.33 243.67 219.66 243.34 220 243 C226.06281442 242.59817604 232.00670719 243.11210477 238 244 C238.66 242.68 239.32 241.36 240 240 C240.99 240.33 241.98 240.66 243 241 C243.33 240.34 243.66 239.68 244 239 C243.01 238.67 242.02 238.34 241 238 C239.8125 235.9375 239.8125 235.9375 239 234 C238.34 234 237.68 234 237 234 C236.34 232.68 235.68 231.36 235 230 C234.34 230.33 233.68 230.66 233 231 C231 227.25 231 227.25 231 225 C232.6205424 223.59096222 234.29882456 222.24805227 236 220.9375 C247.81199493 211.40925825 255.58556647 199.87194505 261.11328125 185.76953125 C262 184 262 184 263.46875 182.62646484 C265.16557072 180.8241339 265.68964417 179.56201292 266.38671875 177.20703125 C266.60263672 176.49482422 266.81855469 175.78261719 267.04101562 175.04882812 C267.25435547 174.31083984 267.46769531 173.57285156 267.6875 172.8125 C268.02491211 171.68811523 268.02491211 171.68811523 268.36914062 170.54101562 C268.92130633 168.69654721 269.46180221 166.8485924 270 165 C267.59683794 183.40316206 267.59683794 183.40316206 262 189 C261.22817522 190.3091021 260.50206603 191.64576202 259.8125 193 C259.44769531 193.70125 259.08289063 194.4025 258.70703125 195.125 C258.47371094 195.74375 258.24039063 196.3625 258 197 C258.33 197.66 258.66 198.32 259 199 C259.32613281 198.52949219 259.65226563 198.05898437 259.98828125 197.57421875 C260.42527344 196.95160156 260.86226562 196.32898438 261.3125 195.6875 C261.74175781 195.07261719 262.17101562 194.45773438 262.61328125 193.82421875 C264 192 264 192 265.49291992 190.61254883 C268.00483451 187.92484498 268.84978391 184.42869332 270 181 C270.26127686 180.2383252 270.52255371 179.47665039 270.79174805 178.69189453 C279.53720281 152.88393474 280.45136592 123.08284458 272 97 C271.60651367 95.75694092 271.60651367 95.75694092 271.20507812 94.48876953 C261.79872755 65.42946227 243.36873734 39.30231855 215.84765625 24.68359375 C206.03961834 19.85269754 196.04354769 16.14567413 185.0625 18.8125 C183.5465625 19.4003125 183.5465625 19.4003125 182 20 C181.67 20.99 181.34 21.98 181 23 C185.118647 26.72006826 189.71715318 29.30824355 195 31 C195.99 30.505 195.99 30.505 197 30 C195.02 28.02 195.02 28.02 193 26 C206.19996093 30.01552209 216.21542964 33.78448095 225.90234375 43.93359375 C228.14390111 46.14175733 230.50527596 48.02170429 233 49.9375 C249.94625887 63.30794278 260.02827555 84.60970402 266 105 C264.57549668 103.57549668 263.90203912 101.93263202 262.99609375 100.1328125 C258.722576 91.75577049 254.51368227 83.86783105 248.73828125 76.42578125 C246.93897886 73.91484465 245.66696607 71.42631056 244.375 68.625 C242.23974317 64.10285674 240.17891834 61.75630784 236 59 C235.40058594 58.89816406 234.80117187 58.79632813 234.18359375 58.69140625 C230.86654815 57.64110737 228.65940178 55.29008974 226.125 53 C215.76601413 43.96980774 204.67116004 37.31596123 192 32 C190.67162109 31.39478516 190.67162109 31.39478516 189.31640625 30.77734375 C186.88666698 29.70354625 186.88666698 29.70354625 184 31 C188.19606558 33.44134724 192.36738019 35.75434781 196.8203125 37.69140625 C210.84413534 43.83453437 222.33502347 52.02245894 233 63 C233.825 63.804375 234.65 64.60875 235.5 65.4375 C251.47378932 81.81063405 265.08346985 105.72013409 266 129 C265.34 129 264.68 129 264 129 C263.99742187 128.3915625 263.99484375 127.783125 263.9921875 127.15625 C263.14470454 107.94663614 251.62071163 87.93765545 239 74 C238.26910156 73.15050781 237.53820312 72.30101562 236.78515625 71.42578125 C210.47093096 41.22685486 173.99132762 28.30241969 135 25 C139.83324442 24.17769865 144.66725245 23.36008241 149.50195312 22.54638672 C151.13887759 22.2702597 152.77560456 21.99295882 154.41210938 21.71435547 C165.24886029 19.87051026 176.07982226 18.2633516 187 17 C187 16.34 187 15.68 187 15 C187.99 14.67 188.98 14.34 190 14 C183.18919468 10.15617724 176.42134325 10.50390376 168.75 10.5625 C168.08348419 10.56454437 167.41696838 10.56658875 166.73025513 10.56869507 C155.37194772 10.62542442 144.93467456 12.02222972 134 15 Z " fill="#121212" transform="translate(0,0)"/>
<path d="M0 0 C18.17516092 11.63210299 23.40604244 34.79083291 30.125 54 C30.90431258 56.20074592 31.68421837 58.4012819 32.46484375 60.6015625 C35.18240547 68.30847432 37.84110331 76.01301921 40.23461914 83.82788086 C40.76775475 85.56671791 40.76775475 85.56671791 41.31166077 87.34068298 C41.71426369 88.65704491 41.71426369 88.65704491 42.125 90 C42.13308685 89.30223953 42.14117371 88.60447906 42.14950562 87.88557434 C42.22802269 81.25249945 42.3154759 74.61960636 42.41252708 67.9867754 C42.46209748 64.57821895 42.50842441 61.16968778 42.546875 57.76098633 C42.59141177 53.82617012 42.65089046 49.89164236 42.7109375 45.95703125 C42.72248871 44.75544876 42.73403992 43.55386627 42.74594116 42.31587219 C42.9842017 28.40347339 43.74588959 12.66804526 53.9375 2.125 C58.09508085 -0.01318444 61.84080775 0.60687992 66.1875 1.9375 C75.4773728 8.46017665 78.34591856 20.31172882 80.33564758 30.91123962 C82.11218409 41.06828478 82.55801456 50.95947097 82.46118164 61.25854492 C82.43754476 63.93243712 82.4406596 66.60532588 82.44726562 69.27929688 C82.40467597 95.26091959 81.71365825 133.08211634 62.5625 153.0625 C58.28200101 156.51920485 54.48935186 156.96306138 49.08203125 156.609375 C39.53281665 154.64150515 32.76042364 146.37907334 27.52514648 138.6328125 C21.66880472 128.94500922 17.56587431 118.58721749 13.3125 108.125 C12.54307729 106.25489564 11.77289992 104.38510158 11.00195312 102.515625 C10.26495457 100.72162944 9.52860297 98.92736794 8.79296875 97.1328125 C8.28361031 95.89049362 8.28361031 95.89049362 7.76396179 94.62307739 C6.07023553 90.45464453 4.4868282 86.29210977 3.125 82 C3.11041748 83.01610352 3.09583496 84.03220703 3.08081055 85.07910156 C2.19364736 142.41415538 2.19364736 142.41415538 -7.5625 152.0625 C-11.71055641 154.48872168 -15.07251342 155.42324072 -19.875 155 C-25.99282023 152.17639066 -29.49136547 147.35136391 -32.00390625 141.265625 C-39.95899712 118.60389012 -39.4716303 92.88403385 -36.18701172 69.35205078 C-35.84425476 66.76823186 -35.56229723 64.18149875 -35.28515625 61.58984375 C-30.19235559 15.75463785 -30.19235559 15.75463785 -15.0625 2.125 C-9.98282586 -1.26144943 -5.82430201 -2.02584418 0 0 Z " fill="#FFFDFD" transform="translate(121.875,57)"/>
<path d="M0 0 C1.72210158 1.50522522 3.43081885 3.02591709 5.125 4.5625 C5.98738281 5.30628906 6.84976563 6.05007812 7.73828125 6.81640625 C27.06175955 23.67680082 39.01362666 45.76320367 45.125 70.5625 C45.38611572 71.62009521 45.64723145 72.67769043 45.91625977 73.76733398 C47.97036703 82.91457783 48.56570633 91.62696913 48.46118164 100.98852539 C48.43740592 103.2589846 48.44067582 105.52827402 48.44726562 107.79882812 C48.42587865 120.34156358 46.7905992 131.62627555 42.6875 143.5 C42.38779297 144.40556641 42.08808594 145.31113281 41.77929688 146.24414062 C39.56341488 152.78603952 37.22910351 157.77740296 32.125 162.5625 C31.5475 163.14 30.97 163.7175 30.375 164.3125 C29.9625 164.725 29.55 165.1375 29.125 165.5625 C30.43454476 161.33166309 31.96354716 157.435103 34.125 153.5625 C34.785 153.2325 35.445 152.9025 36.125 152.5625 C37.23727429 150.07149244 37.23727429 150.07149244 38.1875 147.0625 C38.69990234 145.56203125 38.69990234 145.56203125 39.22265625 144.03125 C40.30021947 139.88892904 40.75663002 135.8181584 41.125 131.5625 C40.95895264 132.0972998 40.79290527 132.63209961 40.62182617 133.18310547 C39.86308789 135.60485702 39.08802915 138.02107583 38.3125 140.4375 C38.05146484 141.27925781 37.79042969 142.12101563 37.52148438 142.98828125 C37.12993164 144.19677734 37.12993164 144.19677734 36.73046875 145.4296875 C36.49481201 146.17331543 36.25915527 146.91694336 36.01635742 147.68310547 C35.125 149.5625 35.125 149.5625 32.125 151.5625 C30.91305797 154.05914854 30.91305797 154.05914854 29.875 157 C24.55251526 170.28237982 14.92024592 184.42387992 2.125 191.5625 C-0.67578125 191.2734375 -0.67578125 191.2734375 -2.875 190.5625 C0.44694083 187.18070438 3.87181488 183.99690955 7.4375 180.875 C27.77256709 162.2844963 34.23837928 137.16181992 36.75 110.5 C37.125 106.5625 37.125 106.5625 38.125 104.5625 C37.92146345 102.42536619 37.70575428 100.28862592 37.42578125 98.16015625 C37.125 95.5625 37.125 95.5625 37.04296875 93.12109375 C36.20434437 72.77668759 23.73700132 51.89869361 11.125 36.5625 C10.66609375 35.964375 10.2071875 35.36625 9.734375 34.75 C6.37524084 30.45030827 2.29963672 27.03404001 -1.875 23.5625 C-2.65101563 22.91023438 -3.42703125 22.25796875 -4.2265625 21.5859375 C-13.24100736 14.17406061 -22.42634731 8.45048606 -33.21728516 4.04663086 C-37.48461275 2.28533422 -41.10999493 0.24178268 -44.875 -2.4375 C-40.76445618 -3.80768127 -39.33641486 -2.49931253 -35.5 -0.625 C-31.01155127 1.57476968 -31.01155127 1.57476968 -26.3984375 3.484375 C-22.97385969 4.94750732 -19.95744828 6.93505892 -16.875 9 C-16.22362061 9.43304443 -15.57224121 9.86608887 -14.90112305 10.31225586 C-9.64566724 13.87980015 -4.7995217 17.81363608 -0.08789062 22.07006836 C2.59348605 24.45626754 4.55245608 26.00087737 8.125 26.5625 C12.90798688 29.38323585 14.43834865 32.98396138 16.6953125 37.8203125 C18.16986352 40.64854969 19.85935278 42.98208732 21.8125 45.5 C27.64652775 53.21921071 31.78300335 61.94685295 36.125 70.5625 C32.78320202 48.62659528 17.49677148 27.50882386 1.125 13.5625 C-0.29268058 12.31365004 -1.70945254 11.06376729 -3.125 9.8125 C-3.76179688 9.26464844 -4.39859375 8.71679688 -5.0546875 8.15234375 C-6.2500486 7.10832665 -7.42324147 6.03825989 -8.5703125 4.94140625 C-13.18754909 0.63556469 -17.93658291 -1.41626662 -23.875 -3.4375 C-24.96683594 -3.81132812 -26.05867188 -4.18515625 -27.18359375 -4.5703125 C-30.07514423 -5.54438015 -32.97154572 -6.49961443 -35.875 -7.4375 C-34.555 -5.7875 -33.235 -4.1375 -31.875 -2.4375 C-37.50305758 -4.08839689 -42.21560388 -5.826468 -46.875 -9.4375 C-47.205 -10.0975 -47.535 -10.7575 -47.875 -11.4375 C-45.875 -14.4375 -45.875 -14.4375 -43.25 -15.125 C-27.32188846 -16.59982514 -12.31707976 -9.97596106 0 0 Z " fill="#FF5555" transform="translate(228.875,33.4375)"/>
<path d="M0 0 C0.99 0.495 0.99 0.495 2 1 C0.4719061 5.04762968 -2.02443241 6.7286255 -5.5 9.1875 C-6.5972719 9.99177189 -7.69229248 10.79912338 -8.78515625 11.609375 C-9.60330811 12.21555664 -9.60330811 12.21555664 -10.43798828 12.83398438 C-30.58314598 27.87200769 -43.37380115 51.56549114 -48 76 C-48.33451172 77.63195312 -48.33451172 77.63195312 -48.67578125 79.296875 C-54.00035759 109.5781391 -47.55212388 140.29261974 -31.56640625 166.3828125 C-30.04692855 168.9215907 -29.14637103 171.05877866 -28.69140625 173.984375 C-27.74462955 176.74446978 -26.30308633 177.57826489 -23.9375 179.25 C-20.79394131 181.57200266 -18.03867162 183.89313901 -15.375 186.75 C5.41987121 207.95502646 34.44041454 218.84088961 63.75 219.5 C83.78745899 219.53457573 101.96478965 213.26635867 119.93896484 204.91210938 C122.56889575 203.74823566 125.24966906 202.83531861 128 202 C128 202.99 128 203.98 128 205 C117.22982961 210.93447791 106.76245863 216.30014407 95 220 C93.54013672 220.52207031 93.54013672 220.52207031 92.05078125 221.0546875 C63.02033209 230.05003795 31.19777497 222.33650903 5 209 C-0.91138268 205.85206857 -6.00799582 202.37017889 -10.94140625 197.84375 C-13.19594696 195.82450291 -15.54727425 193.98119997 -17.9375 192.125 C-25.37992479 186.180206 -31.74547932 180.2169097 -36.41015625 171.84375 C-37.60067742 169.71426741 -38.82350592 167.65614125 -40.12109375 165.59375 C-47.68988117 153.50368437 -53.88435247 141.00557747 -57 127 C-57.99 127 -58.98 127 -60 127 C-62.66590937 122.44573816 -63.31563182 119.26053037 -63 114 C-61.515 113.505 -61.515 113.505 -60 113 C-60.08088867 112.40646729 -60.16177734 111.81293457 -60.24511719 111.20141602 C-61.03332196 104.64515934 -60.89008767 98.49839862 -60.25 91.9375 C-60.17523438 91.00873047 -60.10046875 90.07996094 -60.0234375 89.12304688 C-59.52709972 83.76485493 -58.57376891 79.03894656 -56.63671875 74.01147461 C-55.94338487 71.82114568 -55.80204123 69.91481413 -55.75 67.625 C-55.31474047 62.48183124 -52.76690042 59.19560467 -49.890625 55.02734375 C-47.83883156 51.7419307 -46.47441647 48.4784901 -45.0625 44.875 C-42.74892146 39.1877126 -40.07279973 35.18879663 -35.734375 30.8671875 C-33.93020033 29.10301595 -33.93020033 29.10301595 -32.9921875 26.9609375 C-31.79673982 24.59828107 -30.41619729 23.42524559 -28.375 21.75 C-24.00652959 18.05665684 -20.00434234 14.0800547 -16 10 C-15.26265625 9.30261719 -14.5253125 8.60523438 -13.765625 7.88671875 C-11.77223762 6.1872861 -11.77223762 6.1872861 -12 4 C-11.319375 4.0825 -10.63875 4.165 -9.9375 4.25 C-6.93091765 3.99412065 -5.81968701 3.46384189 -3.3125 1.9375 C-1.6728125 0.9784375 -1.6728125 0.9784375 0 0 Z " fill="#FF7D7D" transform="translate(86,30)"/>
<path d="M0 0 C-0.33 1.98 -0.66 3.96 -1 6 C0.24556092 6.81928886 1.49666635 7.63015186 2.75 8.4375 C3.44609375 8.88996094 4.1421875 9.34242187 4.859375 9.80859375 C6.92957014 10.9608009 8.68696324 11.54676982 11 12 C10.505 10.515 10.505 10.515 10 9 C23.71860751 11.69874246 33.38375767 16.07500513 43.09375 26.16015625 C45.23670532 28.22845943 47.51214163 30.00024597 49.875 31.8125 C66.59095618 45.03330171 79.09349607 67.21191758 84 88 C84.09375 90.828125 84.09375 90.828125 84 93 C82.15455479 90.23183218 80.83641497 87.48141105 79.48706055 84.4519043 C74.86190217 74.13424331 69.23287592 64.74166852 62.29296875 55.80078125 C61 54 61 54 59.625 50.5 C57.87095411 46.72205501 56.48174471 45.20793567 53 43 C52.40832031 42.90460937 51.81664062 42.80921875 51.20703125 42.7109375 C47.88351036 41.64035201 45.66914313 39.29889204 43.125 37 C31.24211799 26.64138859 18.0751345 18.82314571 3 14 C7.20034716 16.49071301 11.36870334 18.6514072 15.84814453 20.58618164 C29.08650439 26.37622382 39.96811405 34.67291546 50 45 C50.804375 45.78375 51.60875 46.5675 52.4375 47.375 C66.76347883 62.05039295 83.14078475 85.78920318 83.25 107.25 C83.18734461 108.83428633 83.11207895 110.41844153 83 112 C82.34 112 81.68 112 81 112 C80.85304688 111.16339844 80.70609375 110.32679687 80.5546875 109.46484375 C76.7854782 89.90394722 68.27153117 71.87051082 55 57 C54.30261719 56.17113281 53.60523438 55.34226563 52.88671875 54.48828125 C29.38605094 27.12095878 -5.91985601 12.69058474 -41.3046875 9.6015625 C-44.53614539 9.36099119 -47.76336828 9.15311961 -51 9 C-47.43132271 6.62088181 -44.1856078 6.17519975 -40.04296875 5.52734375 C-39.26238602 5.39936905 -38.48180328 5.27139435 -37.67756653 5.13954163 C-35.18193717 4.73198991 -32.68481196 4.33459738 -30.1875 3.9375 C-28.51746887 3.66668852 -26.84754551 3.39521152 -25.17773438 3.12304688 C-22.0985487 2.62208402 -19.01879257 2.12500656 -15.93823242 1.63256836 C-13.51917463 1.24401348 -11.10206419 0.84276358 -8.6887207 0.42016602 C-5.75642483 -0.03806346 -2.96313041 -0.07055072 0 0 Z " fill="#FFF1F1" transform="translate(183,17)"/>
<path d="M0 0 C3.84079988 0.6192594 6.98893806 1.7756631 10.5 3.4375 C14.40370222 5.2777262 14.40370222 5.2777262 18.40625 6.8828125 C21.85229112 8.3671013 24.89401362 10.35679068 28 12.4375 C28.65137939 12.87054443 29.30275879 13.30358887 29.97387695 13.74975586 C35.22933276 17.31730015 40.0754783 21.25113608 44.78710938 25.50756836 C47.46848605 27.89376754 49.42745608 29.43837737 53 30 C57.78298688 32.82073585 59.31334865 36.42146138 61.5703125 41.2578125 C63.04486352 44.08604969 64.73435278 46.41958732 66.6875 48.9375 C70.46602008 53.97071949 73.48780661 59.25617481 76.4375 64.8125 C76.87473389 65.62517334 77.31196777 66.43784668 77.76245117 67.27514648 C79.9738268 71.52240563 81.57062302 75.15194356 82 80 C82.66 80 83.32 80 84 80 C88.16568443 95.96845698 92.9332467 117.78627201 88 134 C87.34 134.33 86.68 134.66 86 135 C85.20955485 136.7917251 85.20955485 136.7917251 84.59765625 138.96484375 C84.34693359 139.76470703 84.09621094 140.56457031 83.83789062 141.38867188 C83.32238155 143.08322941 82.80934588 144.77854143 82.29882812 146.47460938 C82.04681641 147.27576172 81.79480469 148.07691406 81.53515625 148.90234375 C81.20076538 150.00823853 81.20076538 150.00823853 80.85961914 151.13647461 C80 153 80 153 77 155 C75.78805797 157.49664854 75.78805797 157.49664854 74.75 160.4375 C69.42751526 173.71987982 59.79524592 187.86137992 47 195 C44.19921875 194.7109375 44.19921875 194.7109375 42 194 C45.32194083 190.61820438 48.74681488 187.43440955 52.3125 184.3125 C72.64756709 165.7219963 79.11337928 140.59931992 81.625 113.9375 C82 110 82 110 83 108 C82.79646345 105.86286619 82.58075428 103.72612592 82.30078125 101.59765625 C82 99 82 99 81.91796875 96.55859375 C81.07934437 76.21418759 68.61200132 55.33619361 56 40 C55.54109375 39.401875 55.0821875 38.80375 54.609375 38.1875 C51.25024084 33.88780827 47.17463672 30.47154001 43 27 C42.22398437 26.34773438 41.44796875 25.69546875 40.6484375 25.0234375 C31.63399264 17.61156061 22.44865269 11.88798606 11.65771484 7.48413086 C7.39294252 5.72388888 3.72309395 3.74181337 0 1 C0 0.67 0 0.34 0 0 Z " fill="#FF7D7D" transform="translate(184,30)"/>
<path d="M0 0 C1.7074998 1.28062485 3.37373596 2.61767557 5 4 C5 4.66 5 5.32 5 6 C5.99 5.67 6.98 5.34 8 5 C8.33 6.32 8.66 7.64 9 9 C9.66 9 10.32 9 11 9 C11.268125 9.61875 11.53625 10.2375 11.8125 10.875 C12.95556848 13.2995233 12.95556848 13.2995233 16 15 C14 16 14 16 11 16 C10.67 16.99 10.34 17.98 10 19 C9.3709375 18.9278125 8.741875 18.855625 8.09375 18.78125 C-1.15678186 17.31972408 -1.15678186 17.31972408 -10 19 C-10.33 17.68 -10.66 16.36 -11 15 C-11.66 15 -12.32 15 -13 15 C-13.33 13.02 -13.66 11.04 -14 9 C-12.04480616 7.82807953 -10.0857461 6.6626071 -8.125 5.5 C-7.03445312 4.8503125 -5.94390625 4.200625 -4.8203125 3.53125 C-2 2 -2 2 0 2 C0 1.34 0 0.68 0 0 Z " fill="#FF4A4A" transform="translate(228,225)"/>
<path d="M0 0 C1.33594381 -0.01574946 2.67188155 -0.03202294 4.0078125 -0.04882812 C10.64418378 -0.05216634 15.92710235 -0.03125486 21.75 3.3125 C20.76 3.6425 19.77 3.9725 18.75 4.3125 C18.75 4.9725 18.75 5.6325 18.75 6.3125 C18.09 6.3125 17.43 6.3125 16.75 6.3125 C16.75 5.6525 16.75 4.9925 16.75 4.3125 C1.9 4.3125 -12.95 4.3125 -28.25 4.3125 C-22.04071135 -1.89678865 -8.08996676 -0.01994568 0 0 Z " fill="#FF8080" transform="translate(168.25,10.6875)"/>
<path d="M0 0 C3.84079988 0.6192594 6.98893806 1.7756631 10.5 3.4375 C14.40370222 5.2777262 14.40370222 5.2777262 18.40625 6.8828125 C21.85202719 8.36698761 24.89506234 10.35547886 28 12.4375 C28.6492041 12.87271973 29.2984082 13.30793945 29.96728516 13.75634766 C34.6079083 16.92640639 39.0519549 20.28445733 43.375 23.875 C44.20451172 24.55260376 44.20451172 24.55260376 45.05078125 25.24389648 C47.81334922 27.60271128 49.67054121 29.27191373 50 33 C49.05125 32.175 48.1025 31.35 47.125 30.5 C36.04877293 21.04739657 25.19577666 13.00910605 11.65771484 7.48413086 C7.39294252 5.72388888 3.72309395 3.74181337 0 1 C0 0.67 0 0.34 0 0 Z " fill="#FF8D8D" transform="translate(184,30)"/>
<path d="M0 0 C0 0.66 0 1.32 0 2 C2.31 2 4.62 2 7 2 C6.34 2.66 5.68 3.32 5 4 C5.33 4.66 5.66 5.32 6 6 C4.68 6 3.36 6 2 6 C2 6.66 2 7.32 2 8 C-5.28571429 11.57142857 -5.28571429 11.57142857 -10 10 C-9.67 9.01 -9.34 8.02 -9 7 C-8.34 6.67 -7.68 6.34 -7 6 C-7 5.34 -7 4.68 -7 4 C-7.99 4 -8.98 4 -10 4 C-10 3.34 -10 2.68 -10 2 C-6.49223216 0.39644899 -3.85645121 -0.22036864 0 0 Z " fill="#FF5B5B" transform="translate(56,12)"/>
<path d="M0 0 C-19.35990482 10.06543724 -19.35990482 10.06543724 -30 12 C-30.99 11.67 -31.98 11.34 -33 11 C-26.61443375 7.43787179 -19.9528287 4.70301906 -13.125 2.125 C-12.29250732 1.80265381 -11.46001465 1.48030762 -10.60229492 1.14819336 C-9.80799072 0.85436768 -9.01368652 0.56054199 -8.1953125 0.2578125 C-7.48391113 -0.0088623 -6.77250977 -0.27553711 -6.03955078 -0.55029297 C-3.68806892 -1.06877868 -2.26196295 -0.75314023 0 0 Z " fill="#FF7D7D" transform="translate(121,18)"/>
<path d="M0 0 C2.625 -0.1875 2.625 -0.1875 5 0 C5 1.32 5 2.64 5 4 C7.31 4.66 9.62 5.32 12 6 C11.01 6.495 11.01 6.495 10 7 C11.32 8.65 12.64 10.3 14 12 C8.37194242 10.34910311 3.65939612 8.611032 -1 5 C-1.33 4.34 -1.66 3.68 -2 3 C-1.34 2.01 -0.68 1.02 0 0 Z " fill="#FF6D6D" transform="translate(183,19)"/>
<path d="M0 0 C0 1.32 0 2.64 0 4 C-3.72965139 6.03435531 -5.66905042 7 -10 7 C-10 6.34 -10 5.68 -10 5 C-11.65 5.33 -13.3 5.66 -15 6 C-11.11782941 1.43274048 -5.9921963 -2.17898047 0 0 Z " fill="#FF6767" transform="translate(85,23)"/>
<path d="M0 0 C2.625 0.375 2.625 0.375 4.5625 2.625 C5.625 5.375 5.625 5.375 4.8125 7.6875 C4.420625 8.244375 4.02875 8.80125 3.625 9.375 C1.315 8.715 -0.995 8.055 -3.375 7.375 C-3.41754356 5.37545254 -3.41580783 3.37458364 -3.375 1.375 C-2.375 0.375 -2.375 0.375 0 0 Z " fill="#FF5050" transform="translate(288.375,154.625)"/>
<path d="M0 0 C0.66 0 1.32 0 2 0 C2.78287497 6.10642479 0.10825151 10.00459579 -3 15 C-3.66 15 -4.32 15 -5 15 C-4.72706899 8.8590522 -4.02720165 4.75942013 0 0 Z " fill="#FF6C6C" transform="translate(35,63)"/>
<path d="M0 0 C5.01830384 1.4338011 7.13712499 3.7898897 10 8 C9.8125 10.375 9.8125 10.375 9 12 C5.03003461 9.90474049 2.47940063 7.76501577 0 4 C0 2.68 0 1.36 0 0 Z " fill="#FF6262" transform="translate(234,59)"/>
<path d="M0 0 C2.06708977 3.10063465 2.24973411 3.76411957 2.23046875 7.2734375 C2.22853516 8.0984375 2.22660156 8.9234375 2.22460938 9.7734375 C2.21236328 10.63195312 2.20011719 11.49046875 2.1875 12.375 C2.18685547 13.22578125 2.18621094 14.0765625 2.18554688 14.953125 C2.1565539 19.08945584 2.03708596 22.96780981 1 27 C0.34 26.67 -0.32 26.34 -1 26 C-0.67 17.42 -0.34 8.84 0 0 Z " fill="#FFAEAE" transform="translate(271,137)"/>
<path d="M0 0 C1.859375 0.25390625 1.859375 0.25390625 4 1 C5.265625 2.77734375 5.265625 2.77734375 6.25 4.9375 C6.58515625 5.64777344 6.9203125 6.35804687 7.265625 7.08984375 C8 9 8 9 8 11 C6.68 10.67 5.36 10.34 4 10 C4 9.34 4 8.68 4 8 C3.01 7.67 2.02 7.34 1 7 C0.67 4.69 0.34 2.38 0 0 Z " fill="#FF3D3D" transform="translate(256,75)"/>
<path d="M0 0 C3.84079988 0.6192594 6.98893806 1.7756631 10.5 3.4375 C13.24472697 4.72890946 15.93756851 5.97676356 18.78125 7.03515625 C21 8 21 8 22 10 C14.03730652 9.3543762 5.81972108 5.41836101 0 0 Z " fill="#FF7979" transform="translate(184,30)"/>
<path d="M0 0 C0.99 0 1.98 0 3 0 C4.125 6.75 4.125 6.75 3 9 C1.0625 8.3125 1.0625 8.3125 -1 7 C-1.875 4.5 -1.875 4.5 -2 2 C-1.34 1.34 -0.68 0.68 0 0 Z " fill="#FF5757" transform="translate(170,254)"/>
<path d="M0 0 C2.6189665 2.6189665 3.75694675 5.64745639 5.1875 9 C5.47302734 9.64195312 5.75855469 10.28390625 6.05273438 10.9453125 C6.76587917 12.60411159 7.38980963 14.30063023 8 16 C7.67 16.66 7.34 17.32 7 18 C6.03874097 16.58531689 5.08111675 15.1681636 4.125 13.75 C3.32449219 12.56664062 3.32449219 12.56664062 2.5078125 11.359375 C-1.09782609 5.7173913 -1.09782609 5.7173913 -0.625 2.25 C-0.41875 1.5075 -0.2125 0.765 0 0 Z " fill="#FF6464" transform="translate(39,177)"/>
<path d="M0 0 C0.99 0 1.98 0 3 0 C3.19491452 1.45736087 3.38069358 2.91594593 3.5625 4.375 C3.66691406 5.18710938 3.77132813 5.99921875 3.87890625 6.8359375 C4 9 4 9 3 11 C2.77377919 12.70363822 2.59111527 14.41328701 2.4375 16.125 C2.35371094 17.03507812 2.26992188 17.94515625 2.18359375 18.8828125 C2.12300781 19.58148438 2.06242187 20.28015625 2 21 C1.67 21 1.34 21 1 21 C0.67 14.07 0.34 7.14 0 0 Z " fill="#FF4E4E" transform="translate(264,129)"/>
<path d="M0 0 C0.66 0.66 1.32 1.32 2 2 C1.86328125 4.12890625 1.86328125 4.12890625 1.3125 6.5625 C1.14363281 7.36816406 0.97476563 8.17382812 0.80078125 9.00390625 C0.53652344 9.66261719 0.27226563 10.32132813 0 11 C-0.99 11.33 -1.98 11.66 -3 12 C-3.36923077 4.61538462 -3.36923077 4.61538462 -1.5 1.5 C-1.005 1.005 -0.51 0.51 0 0 Z " fill="#FF5353" transform="translate(34,89)"/>
<path d="M0 0 C0.66 0.33 1.32 0.66 2 1 C2.6328125 3.72265625 2.6328125 3.72265625 3.125 7.0625 C3.29257812 8.16722656 3.46015625 9.27195313 3.6328125 10.41015625 C3.75398438 11.26480469 3.87515625 12.11945313 4 13 C1 12 1 12 -0.1875 10.375 C-1.28380954 7.17040287 -1.19020208 4.36023674 -1 1 C-0.67 0.67 -0.34 0.34 0 0 Z " fill="#FF6A6A" transform="translate(24,143)"/>
<path d="M0 0 C-1.55851755 0.82011312 -3.12201716 1.63076213 -4.6875 2.4375 C-5.55761719 2.88996094 -6.42773438 3.34242187 -7.32421875 3.80859375 C-9.90998264 4.95991928 -12.21356528 5.56320753 -15 6 C-15 5.01 -15 4.02 -15 3 C-13.25531628 2.29911844 -11.50398839 1.61475991 -9.75 0.9375 C-8.77546875 0.55464844 -7.8009375 0.17179687 -6.796875 -0.22265625 C-3.95992605 -1.01113787 -2.70590448 -1.02437812 0 0 Z " fill="#FF9090" transform="translate(121,18)"/>
<path d="M0 0 C2 3 2 3 1.4375 5.875 C-0.19976266 9.43426665 -2.10648032 11.38877493 -5 14 C-5.8971875 14.8971875 -5.8971875 14.8971875 -6.8125 15.8125 C-7.204375 16.204375 -7.59625 16.59625 -8 17 C-6.69045524 12.76916309 -5.16145284 8.872603 -3 5 C-2.34 4.67 -1.68 4.34 -1 4 C-0.34786708 1.97536745 -0.34786708 1.97536745 0 0 Z " fill="#FF9C9C" transform="translate(266,182)"/>
<path d="M0 0 C1.13732426 3.40401948 0.83989957 5.77456664 0.0625 9.25 C-0.13214844 10.14203125 -0.32679688 11.0340625 -0.52734375 11.953125 C-0.68332031 12.62859375 -0.83929688 13.3040625 -1 14 C-1.99 14 -2.98 14 -4 14 C-3.52372025 12.04096255 -3.04388577 10.08278903 -2.5625 8.125 C-2.29566406 7.03445312 -2.02882813 5.94390625 -1.75390625 4.8203125 C-1 2 -1 2 0 0 Z " fill="#FFE9E9" transform="translate(270,163)"/>
<path d="M0 0 C0.99 0 1.98 0 3 0 C2.55123384 1.64846769 2.09069512 3.29373455 1.625 4.9375 C1.36976563 5.85402344 1.11453125 6.77054688 0.8515625 7.71484375 C0 10 0 10 -2 11 C-2.19622241 6.78121808 -1.80230168 3.82989106 0 0 Z " fill="#FF6060" transform="translate(269,174)"/>
<path d="M0 0 C0.66 0.33 1.32 0.66 2 1 C1.67 4.3 1.34 7.6 1 11 C0.34 10.67 -0.32 10.34 -1 10 C-1.125 2.25 -1.125 2.25 0 0 Z " fill="#FFB9B9" transform="translate(271,153)"/>
<path d="M0 0 C2.49505962 2.49505962 2.35948376 3.67328888 2.625 7.125 C2.69976562 8.03507812 2.77453125 8.94515625 2.8515625 9.8828125 C2.92503906 10.93082031 2.92503906 10.93082031 3 12 C2.67 11.01 2.34 10.02 2 9 C1.34 9 0.68 9 0 9 C-0.33 10.32 -0.66 11.64 -1 13 C-1.0896358 9.77311135 -0.80270414 7.11047855 0 4 C0 2.68 0 1.36 0 0 Z " fill="#FF9F9F" transform="translate(267,110)"/>
<path d="M0 0 C3.00221784 4.50332676 4.31896025 8.57767579 4 14 C2.24900461 11.37350692 1.30690675 9.38191413 0.3125 6.4375 C0.04050781 5.65246094 -0.23148437 4.86742188 -0.51171875 4.05859375 C-1 2 -1 2 0 0 Z " fill="#FFE8E8" transform="translate(263,96)"/>
<path d="M0 0 C0 0.66 0 1.32 0 2 C-1.98 2.99 -1.98 2.99 -4 4 C-4.33 3.01 -4.66 2.02 -5 1 C-6.98 1 -8.96 1 -11 1 C-7.2297564 -1.56376565 -4.32597804 -0.83191885 0 0 Z " fill="#FF8F8F" transform="translate(75,18)"/>
<path d="M0 0 C0.48210937 0.42152344 0.96421875 0.84304687 1.4609375 1.27734375 C2.09257812 1.82519531 2.72421875 2.37304688 3.375 2.9375 C4.00148437 3.48277344 4.62796875 4.02804688 5.2734375 4.58984375 C6.95632334 6.06958624 6.95632334 6.06958624 9 7 C8.67 7.66 8.34 8.32 8 9 C4.48536988 7.10019993 2.10449322 5.43364683 0 2 C0 1.34 0 0.68 0 0 Z " fill="#FF5151" transform="translate(235,62)"/>
<path d="M0 0 C3.55780196 0.60990891 6.6828589 1.5783681 10 3 C9.67 3.99 9.34 4.98 9 6 C6.03 4.35 3.06 2.7 0 1 C0 0.67 0 0.34 0 0 Z " fill="#FF8F8F" transform="translate(184,30)"/>
<path d="M0 0 C3.41158256 1.13719419 4.11854601 2.04342944 6 5 C6 5.66 6 6.32 6 7 C3.53199953 5.84826645 1.95216435 4.95216435 0 3 C0 2.01 0 1.02 0 0 Z " fill="#FF4646" transform="translate(56,202)"/>
<path d="M0 0 C0.66 0 1.32 0 2 0 C2.33 2.31 2.66 4.62 3 7 C2.34 7 1.68 7 1 7 C0.67 4.69 0.34 2.38 0 0 Z " fill="#FF6161" transform="translate(25,133)"/>
</svg>
