<?xml version="1.0" encoding="UTF-8"?>
<svg version="1.1" xmlns="http://www.w3.org/2000/svg" width="2000" height="1500">
<path d="M0 0 C660 0 1320 0 2000 0 C2000 495 2000 990 2000 1500 C1340 1500 680 1500 0 1500 C0 1005 0 510 0 0 Z " fill="black" transform="translate(0,0)"/>
<path d="M0 0 C1.97720985 0.66663867 3.95706822 1.32543798 5.93847656 1.97949219 C41.98596203 13.88772126 76.28460621 29.14337049 108.72119141 48.91748047 C109.49027832 49.38283203 110.25936523 49.84818359 111.05175781 50.32763672 C131.37520127 62.65323719 150.53308616 76.61761511 168.72119141 91.91748047 C169.25276855 92.36414063 169.7843457 92.81080078 170.33203125 93.27099609 C182.57890775 103.58782907 194.24962716 114.36676093 205.59619141 125.66748047 C206.39307373 126.45968994 207.18995605 127.25189941 208.01098633 128.06811523 C212.7873668 132.85752266 217.31762322 137.7855225 221.72119141 142.91748047 C222.74275066 144.07409004 223.76614398 145.22908269 224.79150391 146.38232422 C232.32666743 154.92136204 239.38041383 163.74208851 246.19091797 172.86816406 C247.62817792 174.79291838 249.07612161 176.70916522 250.52587891 178.62451172 C297.92941895 241.72385261 329.7486543 318.66076247 340.44256592 396.88647461 C340.63034157 398.25524187 340.82136917 399.62356646 341.01544189 400.99145508 C348.00344793 450.270049 347.21913291 501.89037481 338.72119141 550.91748047 C338.50446777 552.16851563 338.28774414 553.41955078 338.06445312 554.70849609 C331.3996499 592.44588368 320.2911995 629.8533159 304.72119141 664.91748047 C304.27839844 665.92359375 303.83560547 666.92970703 303.37939453 667.96630859 C290.28530291 697.54925632 274.55501585 725.60214997 255.72119141 751.91748047 C255.17317871 752.68334473 254.62516602 753.44920898 254.06054688 754.23828125 C247.43342724 763.454842 240.65981649 772.45585943 233.21337891 781.02685547 C230.91588315 783.69166246 228.72022928 786.41161764 226.53369141 789.16748047 C217.3404773 800.43447467 206.97063187 810.74537874 196.72119141 821.04248047 C196.03992187 821.72842285 195.35865234 822.41436523 194.65673828 823.12109375 C190.17404257 827.58954824 185.5156828 831.78798054 180.72119141 835.91748047 C179.56476759 836.93925 178.4097712 837.96263779 177.25634766 838.98779297 C168.07569561 847.08999097 158.55711665 854.62822114 148.72119141 861.91748047 C147.98465332 862.46436523 147.24811523 863.01125 146.48925781 863.57470703 C106.22412771 893.35603887 62.04444134 916.51502489 14.71557617 932.86962891 C12.59328483 933.6123011 10.47711433 934.37257101 8.36547852 935.14501953 C0.33968374 938.07686761 -7.70764956 940.60309114 -15.96630859 942.79248047 C-17.87488647 943.29847778 -17.87488647 943.29847778 -19.82202148 943.81469727 C-42.90200583 949.83213932 -66.53168297 954.60527109 -90.27880859 956.91748047 C-91.25027832 957.01899414 -92.22174805 957.12050781 -93.22265625 957.22509766 C-110.74582414 958.98882022 -128.24542396 959.10079138 -145.84130859 959.10498047 C-146.95033539 959.10597748 -148.05936218 959.10697449 -149.20199585 959.10800171 C-186.05760416 959.10425279 -186.05760416 959.10425279 -202.09130859 956.47998047 C-203.85422869 956.20979114 -205.61725026 955.94026305 -207.38037109 955.67138672 C-208.63188965 955.47633545 -208.63188965 955.47633545 -209.90869141 955.27734375 C-213.25515015 954.76923907 -216.60838936 954.34348515 -219.96630859 953.91748047 C-225.46052861 953.18933083 -230.93410168 952.37129735 -236.40380859 951.47998047 C-237.09563232 951.36976563 -237.78745605 951.25955078 -238.50024414 951.14599609 C-319.17361724 937.70825383 -397.01080234 898.26906105 -459.27880859 845.91748047 C-459.79975098 845.48145508 -460.32069336 845.04542969 -460.85742188 844.59619141 C-473.53121966 833.96512465 -485.55644279 822.71112676 -497.27880859 811.04248047 C-497.97272705 810.35323486 -498.66664551 809.66398926 -499.3815918 808.95385742 C-503.8840531 804.43726308 -508.11886136 799.74909862 -512.27880859 794.91748047 C-513.30055715 793.76103813 -514.32394539 792.60604201 -515.34912109 791.45263672 C-522.88428462 782.9135989 -529.93803102 774.09287242 -536.74853516 764.96679688 C-538.18579511 763.04204256 -539.63373879 761.12579572 -541.08349609 759.21044922 C-570.1082283 720.57882891 -591.98634107 677.21568744 -608.22558594 631.83789062 C-609.1122345 629.37936255 -610.02291586 626.93338712 -610.95458984 624.49169922 C-619.49231694 601.83852518 -624.43162535 577.96051256 -628.68994141 554.19287109 C-629.17816052 551.47730408 -629.68659072 548.76732215 -630.20849609 546.05810547 C-631.02826127 541.6939425 -631.67507975 537.31620028 -632.27880859 532.91748047 C-632.41416016 531.99080566 -632.54951172 531.06413086 -632.68896484 530.109375 C-635.41148193 510.68078179 -635.54894591 491.31965426 -635.52880859 471.72998047 C-635.52803314 470.45752472 -635.52725769 469.18506897 -635.52645874 467.87405396 C-635.48849976 446.34645757 -634.89620173 425.1923931 -631.96630859 403.85498047 C-631.79915848 402.61331116 -631.79915848 402.61331116 -631.62863159 401.34655762 C-630.126701 390.2198165 -628.48252167 379.19433892 -625.83544922 368.27392578 C-625.18853811 365.53533541 -624.60057294 362.7866309 -624.01318359 360.03466797 C-607.68549801 284.69249947 -571.8269227 213.8190651 -522.27880859 154.91748047 C-521.83214844 154.38590332 -521.38548828 153.85432617 -520.92529297 153.30664062 C-510.60845999 141.05976413 -499.82952813 129.38904471 -488.52880859 118.04248047 C-487.73659912 117.24559814 -486.94438965 116.44871582 -486.12817383 115.62768555 C-481.3387664 110.85130507 -476.41076656 106.32104865 -471.27880859 101.91748047 C-470.12219902 100.89592122 -468.96720637 99.8725279 -467.81396484 98.84716797 C-459.27492702 91.31200444 -450.45420055 84.25825805 -441.328125 77.44775391 C-439.40337068 76.01049395 -437.48712384 74.56255027 -435.57177734 73.11279297 C-420.23552913 61.59296701 -403.9801621 51.33423783 -387.27880859 41.91748047 C-386.41368652 41.42812012 -385.54856445 40.93875977 -384.65722656 40.43457031 C-350.64296304 21.31010872 -314.86796635 6.40522765 -277.27880859 -4.08251953 C-276.50891602 -4.30311035 -275.73902344 -4.52370117 -274.94580078 -4.75097656 C-253.5487544 -10.86244461 -231.75235308 -14.95779426 -209.71630859 -17.89501953 C-208.94249847 -18.00015869 -208.16868835 -18.10529785 -207.37142944 -18.21362305 C-139.32874191 -27.35558966 -65.21873652 -22.01635088 0 0 Z " fill="#EF0505" transform="translate(1145.27880859375,281.08251953125)"/>
<path d="M0 0 C1.80571538 1.54624308 3.59706604 3.10939147 5.375 4.6875 C6.84066406 5.97140625 6.84066406 5.97140625 8.3359375 7.28125 C20.62769433 18.19449204 30.84163201 30.34144389 40.375 43.6875 C40.79604004 44.27305664 41.21708008 44.85861328 41.65087891 45.46191406 C76.4759539 94.354468 98.07514995 155.13282846 113.375 212.6875 C113.79072266 214.25081055 113.79072266 214.25081055 114.21484375 215.84570312 C115.71301047 221.51543183 117.18229372 227.19190819 118.62890625 232.875 C119.75079548 237.27996384 120.90282234 241.6746513 122.08984375 246.0625 C126.71840501 263.28095817 130.44260914 280.63507716 134.01908875 298.09663391 C134.91862662 302.48715046 135.83596881 306.87294497 136.78125 311.25390625 C141.78754864 334.51755025 146.00955226 358.01896711 149.08129883 381.61816406 C149.46423952 384.31625657 149.9240925 387.0000256 150.375 389.6875 C153.72516808 367.12909694 156.70205052 344.5595218 159.18861008 321.88973236 C159.44240481 319.58036954 159.69852986 317.27127429 159.95510864 314.96221924 C162.45209047 292.44769142 164.61758612 269.93012834 166.27172852 247.33569336 C166.34219391 246.37433975 166.4126593 245.41298615 166.48526001 244.42250061 C166.6122717 242.66602021 166.73616064 240.9093095 166.85604858 239.15232849 C167.15411799 234.93654345 167.67161264 230.85821055 168.375 226.6875 C168.57210288 224.2587887 168.73596048 221.82725732 168.875 219.39453125 C168.91560547 218.69019455 168.95621094 217.98585785 168.99804688 217.26017761 C169.08362203 215.7616765 169.16757193 214.26308181 169.25 212.7644043 C169.3706396 210.57898974 169.49733515 208.39399824 169.625 206.20898438 C170.93664916 183.28437488 171.54205173 160.38688308 171.50537109 137.42480469 C171.50178062 134.75936544 171.50082758 132.09412791 171.50537109 129.42871094 C171.56074936 96.2848456 171.56074936 96.2848456 168.328125 63.34057617 C167.99520249 61.09260608 167.68005324 58.84263825 167.3671875 56.59179688 C166.22894205 48.56780861 164.83257279 40.70579884 162.93896484 32.82055664 C161.41048571 24.32922645 161.41048571 24.32922645 163.66015625 20.5 C164.24667969 19.901875 164.83320312 19.30375 165.4375 18.6875 C166.40623047 17.68009766 166.40623047 17.68009766 167.39453125 16.65234375 C168.04808594 16.00394531 168.70164062 15.35554688 169.375 14.6875 C169.91511719 14.11128906 170.45523437 13.53507812 171.01171875 12.94140625 C187.24716556 -4.08026075 212.3047631 -21.84151984 236.58374023 -22.65942383 C252.41995878 -22.85891612 265.49671467 -18.65563279 277.06640625 -7.609375 C278.20916016 -6.47242188 278.20916016 -6.47242188 279.375 -5.3125 C280.00277344 -4.71953125 280.63054687 -4.1265625 281.27734375 -3.515625 C299.12928806 14.7816059 301.91901239 44.00533766 301.72167969 68.15307617 C300.95245998 105.02690501 293.11227276 141.80737791 285.04516602 177.6862793 C283.02014577 186.75497653 281.13033874 195.8507044 279.28320312 204.95703125 C277.15605333 215.41407661 274.92305015 225.82459259 272.375 236.1875 C269.58932617 247.52988521 267.20084065 258.93443773 264.875 270.37890625 C263.67624761 276.2673091 262.41281765 282.13912442 261.12475586 288.00854492 C254.99906877 316.02393899 250.26667359 344.17090785 246.6451416 372.61422729 C246.37733915 374.66954756 246.08978587 376.72138676 245.79980469 378.77368164 C244.36493966 389.31532867 244.06503063 399.73286603 244.11425781 410.36499023 C244.12508383 413.14653836 244.11423573 415.92745431 244.1015625 418.70898438 C244.10288275 420.51302223 244.10544237 422.3170597 244.109375 424.12109375 C244.10330231 425.34172768 244.10330231 425.34172768 244.09710693 426.58702087 C244.15244354 433.47956617 244.76089399 440.45928797 247.875 446.6875 C251.1592523 449.31490184 254.12401914 449.72688787 258.23046875 450.328125 C260.375 450.6875 260.375 450.6875 261.375 451.6875 C262.97862628 471.0235323 256.4551951 488.78305496 244.375 503.6875 C243.83230469 504.39390625 243.28960938 505.1003125 242.73046875 505.828125 C229.99221221 521.57273405 210.06427116 530.22843571 190.375 532.6875 C160.07702853 534.60982238 137.05045474 528.82831055 114.14453125 508.73046875 C103.57225663 498.70685509 96.00250507 486.53232967 89.375 473.6875 C88.97812988 472.92501953 88.58125977 472.16253906 88.17236328 471.37695312 C73.93889192 443.71173707 65.1234603 413.47832521 57.78125 383.3515625 C56.54013669 378.28652453 55.17692563 373.26542623 53.75 368.25 C51.92550685 361.82220349 50.31862403 355.36916831 48.81933594 348.85839844 C47.33831002 342.45051277 45.67239631 336.1008006 43.93896484 329.75634766 C43.34633696 327.58235254 42.76073671 325.40654018 42.17578125 323.23046875 C39.05333809 311.65458192 35.83340999 300.10549794 32.59353638 288.56201172 C32.12349412 286.88603009 31.65443941 285.20977111 31.18649292 283.53320312 C28.43663272 273.6876053 25.53750594 263.90900658 22.42350769 254.17216492 C20.92729036 249.48215896 19.53032936 244.7853556 18.27392578 240.0246582 C12.96823289 220.01013559 5.06167856 200.43976254 -3.69091797 181.69970703 C-4.63737223 179.66084765 -5.55673204 177.61132733 -6.47265625 175.55859375 C-11.76733909 163.8374879 -18.11128427 152.76832252 -24.625 141.6875 C-24.64481934 142.68676514 -24.66463867 143.68603027 -24.68505859 144.71557617 C-25.3448973 176.9769498 -27.50052682 208.67219312 -31.37280273 240.7121582 C-33.26899957 256.42349308 -34.94988958 272.12840065 -36.27612305 287.89892578 C-36.52951687 290.65061605 -36.81701037 293.38506835 -37.13989258 296.12841797 C-38.87314611 311.40600865 -38.8966255 326.642391 -38.82061768 341.99597168 C-38.80975464 344.76139048 -38.81015112 347.52675981 -38.81075573 350.29219627 C-38.81041473 353.66096204 -38.80155993 357.02968231 -38.79296875 360.3984375 C-38.79129951 362.21775284 -38.79129951 362.21775284 -38.78959656 364.07382202 C-38.64256602 391.09239583 -36.16352111 431.14897889 -15.625 451.6875 C-13.38382416 470.03312508 -20.75116575 490.09577006 -31.8125 504.4375 C-44.66634657 519.25210283 -63.11981938 531.35444692 -83.15771484 532.88037109 C-107.15338597 533.60220988 -124.47193458 527.94784672 -142.609375 511.67578125 C-150.44871506 504.21552432 -155.70328598 494.69216459 -159.625 484.6875 C-159.8629126 484.09936523 -160.1008252 483.51123047 -160.34594727 482.90527344 C-176.55909956 441.6651418 -166.84460603 381.96802946 -157.25390625 340.46142578 C-156.49502903 337.1142352 -155.77844502 333.75897835 -155.0625 330.40234375 C-149.94482311 306.46092414 -144.25372645 282.70274705 -137.35888672 259.20410156 C-136.60408506 256.61577971 -135.86421779 254.02361018 -135.12890625 251.4296875 C-130.96581303 236.74453515 -130.96581303 236.74453515 -129.1953125 231.046875 C-125.5306147 219.22803799 -122.44492476 207.29866757 -119.51611328 195.2800293 C-117.96502656 188.93403693 -116.34579272 182.6266677 -114.51171875 176.35546875 C-112.87988173 170.73063619 -111.58713415 165.13849616 -110.5625 159.375 C-110.39967529 158.48546631 -110.23685059 157.59593262 -110.0690918 156.67944336 C-109.74004038 154.8757004 -109.4138859 153.07142624 -109.09082031 151.26660156 C-108.65607373 148.85954556 -108.20267796 146.45693008 -107.7421875 144.0546875 C-104.81542333 128.57920545 -104.48284914 113.38727282 -104.625 97.6875 C-114.71880274 93.54585945 -127.26315427 92.7670185 -137.859375 95.53125 C-140.3987827 96.69843118 -142.42980939 97.96270738 -144.625 99.6875 C-145.65753906 100.48994141 -145.65753906 100.48994141 -146.7109375 101.30859375 C-153.40316097 107.27005718 -158.79409948 116.19479844 -161.625 124.6875 C-164.265 124.0275 -166.905 123.3675 -169.625 122.6875 C-169.87799109 111.58400215 -169.32002076 100.85324902 -167.88964844 89.84130859 C-167.64148284 87.82164357 -167.44768469 85.79550793 -167.2578125 83.76953125 C-164.43364002 55.49898835 -153.6818417 27.91368445 -134.625 6.6875 C-133.59826172 5.51960938 -133.59826172 5.51960938 -132.55078125 4.328125 C-98.46447638 -32.21541811 -37.32788301 -29.83040223 0 0 Z " fill="#FEFEFE" transform="translate(926.625,460.3125)"/>
</svg>
