<?xml version="1.0" encoding="UTF-8"?>
<svg version="1.1" xmlns="http://www.w3.org/2000/svg" width="577" height="433">
<path d="M0 0 C190.41 0 380.82 0 577 0 C577 142.89 577 285.78 577 433 C386.59 433 196.18 433 0 433 C0 290.11 0 147.22 0 0 Z " fill="#FEFEFE" transform="translate(0,0)"/>
<path d="M0 0 C27.79289687 23.81898795 46.24825011 57.20034966 49.94799805 93.81958008 C52.93457549 133.55194237 42.03296166 170.75644023 16.12890625 201.22631836 C15.3296875 202.17249023 14.53046875 203.11866211 13.70703125 204.09350586 C-8.1838799 229.33637248 -41.44438848 246.4449144 -74.68359375 249.98022461 C-115.28069009 252.75097643 -152.56404467 242.84925933 -183.87109375 216.22631836 C-184.82886719 215.41549805 -185.78664062 214.60467773 -186.7734375 213.76928711 C-213.66976653 190.40312847 -230.12635028 155.57056825 -232.87109375 120.22631836 C-235.01203249 78.85603355 -222.1544722 41.69794486 -194.43359375 10.91381836 C-143.32544489 -42.96086848 -56.88871863 -47.48989771 0 0 Z " fill="#ED0506" transform="translate(379.87109375,107.773681640625)"/>
<path d="M0 0 C1.31188547 1.08006635 2.6035157 2.18515157 3.875 3.3125 C4.53242188 3.87710938 5.18984375 4.44171875 5.8671875 5.0234375 C27.96753999 25.4039182 34.94216601 62.31220004 40.875 90.3125 C41.19259277 91.79290771 41.19259277 91.79290771 41.51660156 93.30322266 C42.66032209 98.63484536 43.77580456 103.97153756 44.875 109.3125 C45.43126723 104.33663362 45.98234142 99.36022618 46.52905273 94.38330078 C46.71487568 92.69792986 46.9020038 91.01270222 47.09057617 89.32763672 C48.89531442 73.18605779 50.06352915 57.19808391 50.0625 40.9375 C50.06555145 40.27016846 50.06860291 39.60283691 50.07174683 38.9152832 C50.10398147 30.75955412 49.72152825 22.87300683 48.4375 14.8125 C47.47103104 8.23648719 47.47103104 8.23648719 48.94921875 4.85546875 C50.79097133 2.81623221 52.47477335 1.6431956 54.875 0.3125 C56.07189453 -0.41646484 56.07189453 -0.41646484 57.29296875 -1.16015625 C62.45634434 -4.03403506 66.95269206 -5.6875 72.875 -5.6875 C78.37775934 -4.10195917 81.89198212 -1.55485648 84.875 3.3125 C87.40398251 8.57278363 88.3987473 13.52890372 88.3125 19.375 C88.30275146 20.15552734 88.29300293 20.93605469 88.28295898 21.74023438 C87.71862875 41.19145417 82.19682955 60.5603705 78.04907227 79.49023438 C75.15569599 92.71478134 72.65225415 105.48642244 72.25 119.0625 C72.21132813 120.15304688 72.17265625 121.24359375 72.1328125 122.3671875 C72.03989026 125.01547148 71.95403775 127.66377165 71.875 130.3125 C73.525 130.9725 75.175 131.6325 76.875 132.3125 C75.98135942 138.9414458 74.87846592 144.58566801 69.875 149.3125 C62.78605071 154.18615264 56.43817706 156.07681663 47.875 155.3125 C39.81690383 153.52853124 33.16862782 148.80211966 28.75 141.875 C22.68880296 130.63070662 18.96088683 118.88362179 15.97622681 106.53549194 C15.04688391 102.70066929 14.07707433 98.87607279 13.109375 95.05078125 C12.91922318 94.29694656 12.72907135 93.54311188 12.53315735 92.76643372 C8.31420042 76.13419317 3.85388635 59.08831401 -5.125 44.3125 C-7.32075412 63.32825624 -9.51049955 82.33906503 -9.625 101.5 C-9.64304687 102.71244385 -9.66109375 103.9248877 -9.6796875 105.17407227 C-9.61840403 114.309778 -8.28526871 123.57209694 -3.125 131.3125 C-2.76347462 137.53073657 -4.57517737 142.32356009 -8.125 147.3125 C-13.28570326 152.47320326 -18.47549052 154.85631132 -25.625 155.75 C-31.87141673 154.96919791 -37.73463761 151.8248169 -42.125 147.3125 C-54.74610985 125.01236333 -43.54303706 93.20645163 -37.24609375 70.46875 C-36.33698474 67.21672915 -35.41964569 63.96760179 -34.4855957 60.72265625 C-30.95090799 48.44158045 -30.95090799 48.44158045 -30 35.75 C-30.01804688 34.53183594 -30.03609375 33.31367188 -30.0546875 32.05859375 C-30.07789063 31.15238281 -30.10109375 30.24617188 -30.125 29.3125 C-35.7637188 28.52897418 -35.7637188 28.52897418 -40.80078125 30.578125 C-42.52810331 32.67740727 -43.91014292 34.88278584 -45.125 37.3125 C-46.115 36.9825 -47.105 36.6525 -48.125 36.3125 C-47.45641216 23.30961919 -45.91107307 11.53113268 -36.6484375 1.75390625 C-26.2477587 -7.61782839 -11.27469827 -8.12930111 0 0 Z " fill="#FEFCFC" transform="translate(266.125,131.6875)"/>
<path d="M0 0 C0.66 0.33 1.32 0.66 2 1 C9.20012011 34.51167012 3.59926561 74.52353968 -2 108 C-2.33 108 -2.66 108 -3 108 C-3.50642925 104.93852743 -4.00399322 101.87567701 -4.5 98.8125 C-4.64308594 97.94818359 -4.78617187 97.08386719 -4.93359375 96.19335938 C-5.59314262 92.09473423 -6.20709266 88.16773976 -6 84 C-5.34 84.99 -4.68 85.98 -4 87 C-2.02 86.505 -2.02 86.505 0 86 C0 78.74 0 71.48 0 64 C0.66 64 1.32 64 2 64 C2 46.18 2 28.36 2 10 C1.34 10 0.68 10 0 10 C0 6.7 0 3.4 0 0 Z " fill="#CA1819" transform="translate(313,138)"/>
<path d="M0 0 C0.33 0 0.66 0 1 0 C0.67 4.95 0.34 9.9 0 15 C-0.66 15 -1.32 15 -2 15 C-1.90596407 20.5504136 -1.79976197 26.10041656 -1.68261719 31.65039062 C-1.64449662 33.53574364 -1.60961519 35.42116521 -1.578125 37.30664062 C-1.53210468 40.02759179 -1.47417386 42.74807793 -1.4140625 45.46875 C-1.40251129 46.30241089 -1.39096008 47.13607178 -1.37905884 47.99499512 C-1.24771404 53.28473563 -0.45668564 57.90926704 1 63 C1.66 63 2.32 63 3 63 C2.814375 63.515625 2.62875 64.03125 2.4375 64.5625 C1.84182234 67.88127553 2.37875842 70.70741964 3 74 C3.33 74.33 3.66 74.66 4 75 C4.04063832 76.66617115 4.042721 78.33388095 4 80 C4.99 80.33 5.98 80.66 7 81 C6.67 82.98 6.34 84.96 6 87 C-7.79964672 66.30052993 -6.09753381 31.28395904 -2 8 C-1.42966016 5.28317845 -0.77762073 2.66612823 0 0 Z " fill="#CD1718" transform="translate(151,181)"/>
<path d="M0 0 C2.33285378 2.13900633 3.7868759 4.16655353 5.1875 7 C5.53167969 7.680625 5.87585938 8.36125 6.23046875 9.0625 C7 11 7 11 7 14 C6.01 13.67 5.02 13.34 4 13 C2.8125 9.9375 2.8125 9.9375 2 7 C1.93941406 8.13179687 1.87882812 9.26359375 1.81640625 10.4296875 C1.73200083 11.91147145 1.64735283 13.3932416 1.5625 14.875 C1.52318359 15.62136719 1.48386719 16.36773437 1.44335938 17.13671875 C1.11328125 22.7734375 1.11328125 22.7734375 0 25 C-0.20757376 27.64944847 -0.37398372 30.28415723 -0.5 32.9375 C-0.86571207 40.59713622 -0.86571207 40.59713622 -2 44 C-2.15109093 46.20959253 -2.24873801 48.42300047 -2.31640625 50.63671875 C-2.35830078 51.93544922 -2.40019531 53.23417969 -2.44335938 54.57226562 C-2.48316987 55.94400761 -2.52288216 57.31575244 -2.5625 58.6875 C-2.60570835 60.07097645 -2.64932339 61.45444027 -2.69335938 62.83789062 C-2.79958028 66.22515719 -2.90162358 69.61249799 -3 73 C-3.33 73 -3.66 73 -4 73 C-4.36717226 54.35706401 -3.72087 36.38742798 -1.34179688 17.86083984 C-0.63276822 11.92627003 -0.28990978 5.96814269 0 0 Z " fill="#C81C1E" transform="translate(260,174)"/>
<path d="M0 0 C1.32 0.33 2.64 0.66 4 1 C3.54109375 1.46148437 3.0821875 1.92296875 2.609375 2.3984375 C-6.81201747 12.41361521 -8.1123002 23.87190597 -10 37 C-10.33 37 -10.66 37 -11 37 C-11.22424141 29.63740707 -10.90120099 23.12950371 -9 16 C-9.66 16 -10.32 16 -11 16 C-11.33 16.66 -11.66 17.32 -12 18 C-11.43623218 14.05362526 -10.4640248 11.16803189 -8 8 C-5.3125 7.1875 -5.3125 7.1875 -3 7 C-3 5.68 -3 4.36 -3 3 C-2.01 3 -1.02 3 0 3 C0 2.01 0 1.02 0 0 Z " fill="#D80F11" transform="translate(228,131)"/>
<path d="M0 0 C0.99 0.495 0.99 0.495 2 1 C2.6328125 3.28515625 2.6328125 3.28515625 3.125 6.0625 C3.29257812 6.98160156 3.46015625 7.90070313 3.6328125 8.84765625 C3.75398438 9.55792969 3.87515625 10.26820313 4 11 C4.99 10.67 5.98 10.34 7 10 C8.91693671 15.75081013 8.72935405 21.04484125 6.125 26.4375 C4.32978723 29.83510638 4.32978723 29.83510638 2 31 C2.2165625 30.41992188 2.433125 29.83984375 2.65625 29.2421875 C5.50958403 21.75874575 5.50958403 21.75874575 4.1328125 14.13671875 C3.41505458 12.7876482 2.6896842 11.44260218 1.95703125 10.1015625 C0.44086479 6.77218473 0.25922879 3.62920303 0 0 Z " fill="#D01416" transform="translate(257,247)"/>
<path d="M0 0 C2 2 2 2 2 6 C3.32 6 4.64 6 6 6 C7.75 8 7.75 8 9 10 C8.34 10 7.68 10 7 10 C6.67 13.63 6.34 17.26 6 21 C5.67 20.01 5.34 19.02 5 18 C4.34 18 3.68 18 3 18 C2.49490792 15.75113762 1.99610821 13.50086131 1.5 11.25 C1.2215625 9.99703125 0.943125 8.7440625 0.65625 7.453125 C0 4 0 4 0 0 Z " fill="#E10C0D" transform="translate(303,204)"/>
<path d="M0 0 C0.33 0 0.66 0 1 0 C1.19972789 6.75746012 1.18473163 12.58235084 -1 19 C-1 19.99 -1 20.98 -1 22 C-1.66 22 -2.32 22 -3 22 C-3.12375 22.99 -3.2475 23.98 -3.375 25 C-3.95194727 29.08880024 -4.94963654 33.00861887 -6 37 C-7.08316467 33.70120659 -6.88943337 31.53647685 -6.07421875 28.18359375 C-5.85443359 27.25353516 -5.63464844 26.32347656 -5.40820312 25.36523438 C-5.17037109 24.39908203 -4.93253906 23.43292969 -4.6875 22.4375 C-2.89297503 14.98843195 -1.29287426 7.55388243 0 0 Z " fill="#C81C1C" transform="translate(352,169)"/>
<path d="M0 0 C0 0.66 0 1.32 0 2 C-1.7578125 2.9765625 -3.515625 3.953125 -5.2734375 4.9296875 C-7.1612614 6.00897274 -7.1612614 6.00897274 -9 8 C-10.32 8 -11.64 8 -13 8 C-13 8.66 -13 9.32 -13 10 C-13.99 10.515625 -14.98 11.03125 -16 11.5625 C-20.51209079 14.11842873 -24.20783227 17.49347607 -28 21 C-28.66 20.67 -29.32 20.34 -30 20 C-24.04912823 13.94446466 -17.72723344 9.33690418 -10.5 4.9375 C-9.69836426 4.44854248 -8.89672852 3.95958496 -8.07080078 3.45581055 C-2.27838053 0 -2.27838053 0 0 0 Z " fill="#CC181D" transform="translate(224,91)"/>
<path d="M0 0 C7.83991749 0.47039505 14.72071135 3.22937188 22 6 C22 6.33 22 6.66 22 7 C19.36 7 16.72 7 14 7 C14 7.66 14 8.32 14 9 C12.68 9 11.36 9 10 9 C10 7.68 10 6.36 10 5 C9.01 4.67 8.02 4.34 7 4 C7 3.34 7 2.68 7 2 C4.69 2 2.38 2 0 2 C0 1.34 0 0.68 0 0 Z " fill="#D60F12" transform="translate(320,79)"/>
<path d="M0 0 C0.66 0 1.32 0 2 0 C1.40440894 4.86872054 -0.72477415 8.59328841 -3.0625 12.8125 C-3.43955078 13.50537109 -3.81660156 14.19824219 -4.20507812 14.91210938 C-5.13083852 16.61128985 -6.06462312 18.30609425 -7 20 C-7.33 19.01 -7.66 18.02 -8 17 C-7.04504326 15.30712215 -6.0409066 13.64142963 -5 12 C-4.17353099 9.44545942 -4 7.72352945 -4 5 C-2.125 2.3125 -2.125 2.3125 0 0 Z " fill="#DF1011" transform="translate(417,270)"/>
<path d="M0 0 C1.32 0.33 2.64 0.66 4 1 C4.0825 1.61875 4.165 2.2375 4.25 2.875 C4.78810733 5.18346804 4.78810733 5.18346804 7 6 C9 7 9 7 9.75 9.125 C9.87375 10.053125 9.87375 10.053125 10 11 C10.66 11 11.32 11 12 11 C12.33 12.98 12.66 14.96 13 17 C9.1691812 14.16881693 6.45626044 11.24396468 3.6875 7.375 C2.64142578 5.93253906 2.64142578 5.93253906 1.57421875 4.4609375 C0 2 0 2 0 0 Z " fill="#D61414" transform="translate(170,293)"/>
<path d="M0 0 C4.77931929 0.60894802 8.45945744 2.60510474 12.625 4.875 C13.29273438 5.22691406 13.96046875 5.57882813 14.6484375 5.94140625 C17.81870172 7.6470084 20.66955909 9.21398417 23 12 C18.3607723 11.14856527 14.74075744 8.5862152 10.75390625 6.1796875 C7.57320186 4.817173 6.26288271 5.11571961 3 6 C2.34 5.67 1.68 5.34 1 5 C0.375 2.4375 0.375 2.4375 0 0 Z " fill="#D21214" transform="translate(344,87)"/>
<path d="M0 0 C0.66 0 1.32 0 2 0 C2.268125 0.804375 2.53625 1.60875 2.8125 2.4375 C3.204375 3.283125 3.59625 4.12875 4 5 C4.99 5.33 5.98 5.66 7 6 C7 7.65 7 9.3 7 11 C7.99 11.33 8.98 11.66 10 12 C10 12.66 10 13.32 10 14 C9.34 14 8.68 14 8 14 C8.33 15.65 8.66 17.3 9 19 C6.29670689 15.70409309 4.58099915 12.24386481 2.8125 8.375 C2.28269531 7.22773438 1.75289062 6.08046875 1.20703125 4.8984375 C0 2 0 2 0 0 Z " fill="#D71316" transform="translate(157,268)"/>
<path d="M0 0 C0.66 0.33 1.32 0.66 2 1 C1 4 1 4 -1.54296875 5.640625 C-4.25075957 8.24079297 -4.36057846 8.58383791 -4.48828125 12.109375 C-4.45521221 13.65700607 -4.39581107 15.20425916 -4.3125 16.75 C-4.28994141 17.54277344 -4.26738281 18.33554688 -4.24414062 19.15234375 C-4.18540471 21.1023762 -4.09572654 23.05143312 -4 25 C-4.33 25 -4.66 25 -5 25 C-7.98206278 8.89686099 -7.98206278 8.89686099 -5.57421875 4.24609375 C-3.79981275 2.54280623 -2.14199069 1.20160453 0 0 Z " fill="#FEE6E5" transform="translate(321,132)"/>
<path d="M0 0 C0.99 0.33 1.98 0.66 3 1 C3.02915731 5.04165139 3.04685173 9.0832755 3.0625 13.125 C3.07087891 14.26710937 3.07925781 15.40921875 3.08789062 16.5859375 C3.09111328 17.69453125 3.09433594 18.803125 3.09765625 19.9453125 C3.10289307 20.96125488 3.10812988 21.97719727 3.11352539 23.02392578 C2.99652309 26.09114726 2.56776417 28.98633134 2 32 C1.67 32 1.34 32 1 32 C1.00523682 31.24380371 1.01047363 30.48760742 1.01586914 29.70849609 C1.03672724 26.26400593 1.04968826 22.8195291 1.0625 19.375 C1.07087891 18.18519531 1.07925781 16.99539062 1.08789062 15.76953125 C1.09111328 14.61582031 1.09433594 13.46210938 1.09765625 12.2734375 C1.10289307 11.21560059 1.10812988 10.15776367 1.11352539 9.06787109 C0.99875578 5.96637654 0.57696282 3.04652343 0 0 Z " fill="#C7181A" transform="translate(352,137)"/>
<path d="M0 0 C0.99 0.33 1.98 0.66 3 1 C-0.31457218 5.69564393 -4.36279281 8.72469104 -9 12 C-9.66 10.68 -10.32 9.36 -11 8 C-10.01 8 -9.02 8 -8 8 C-7.67 7.34 -7.34 6.68 -7 6 C-6.34 6 -5.68 6 -5 6 C-5 5.34 -5 4.68 -5 4 C-3.35 3.67 -1.7 3.34 0 3 C0 2.01 0 1.02 0 0 Z " fill="#D9161A" transform="translate(385,316)"/>
<path d="M0 0 C6.875 1.875 6.875 1.875 8 3 C10.69235776 3.23678716 13.36498156 3.42198025 16.0625 3.5625 C17.20041992 3.62727539 17.20041992 3.62727539 18.36132812 3.69335938 C20.24065438 3.79973633 22.12030244 3.90039934 24 4 C19.06800605 6.78813171 14.19359949 6.80668776 8.7421875 5.4296875 C5.12087011 4.16022199 2.56947084 2.81380703 0 0 Z " fill="#FFE4E2" transform="translate(303,281)"/>
<path d="M0 0 C3.22288829 3.92351618 4.12450197 7.02018905 4.1328125 12.046875 C4.13410156 12.81 4.13539063 13.573125 4.13671875 14.359375 C4.13285156 15.14828125 4.12898438 15.9371875 4.125 16.75 C4.12886719 17.5234375 4.13273437 18.296875 4.13671875 19.09375 C4.12823958 24.14733753 3.71951225 28.99767677 3 34 C2.67 34 2.34 34 2 34 C2.01047363 33.26885986 2.02094727 32.53771973 2.03173828 31.78442383 C2.07340289 28.46048441 2.09935956 25.13660005 2.125 21.8125 C2.14175781 20.66201172 2.15851563 19.51152344 2.17578125 18.32617188 C2.18222656 17.21435547 2.18867188 16.10253906 2.1953125 14.95703125 C2.20578613 13.93585205 2.21625977 12.91467285 2.22705078 11.86254883 C1.93055032 8.12441135 0.65788782 5.31577565 -1 2 C-0.67 1.34 -0.34 0.68 0 0 Z " fill="#FEE6E6" transform="translate(350,135)"/>
<path d="M0 0 C0.33 0.66 0.66 1.32 1 2 C1.99 2 2.98 2 4 2 C4 2.99 4 3.98 4 5 C4.99 5.33 5.98 5.66 7 6 C2.05 7.485 2.05 7.485 -3 9 C-2.01 6.03 -1.02 3.06 0 0 Z " fill="#E20B0E" transform="translate(335,342)"/>
<path d="M0 0 C1.32 0 2.64 0 4 0 C4 3.37027852 3.50175992 4.06702696 1.5625 6.6875 C1.11003906 7.31011719 0.65757812 7.93273437 0.19140625 8.57421875 C-0.20175781 9.04472656 -0.59492188 9.51523437 -1 10 C-1.33 10 -1.66 10 -2 10 C-2.1953125 3.9453125 -2.1953125 3.9453125 -2 2 C-1.34 1.34 -0.68 0.68 0 0 Z " fill="#DD1112" transform="translate(404,290)"/>
<path d="M0 0 C2.02862883 2.53578604 4.05617535 5.0714959 6.0625 7.625 C7.62944607 9.5457726 9.20602511 11.29572385 11 13 C8.03 12.505 8.03 12.505 5 12 C5 11.01 5 10.02 5 9 C4.401875 8.7525 3.80375 8.505 3.1875 8.25 C0.71352479 6.83629988 -0.43370255 5.34944617 -2 3 C-1.34 2.01 -0.68 1.02 0 0 Z " fill="#D21314" transform="translate(293,270)"/>
<path d="M0 0 C0.99 0.495 0.99 0.495 2 1 C2 2.98 2 4.96 2 7 C2.66 7 3.32 7 4 7 C4.144375 8.134375 4.28875 9.26875 4.4375 10.4375 C4.61171478 13.80777201 4.61171478 13.80777201 6 15 C6.14115161 17.67058851 6.04247107 20.32432238 6 23 C3.81124001 19.22389606 2.89606304 15.13898531 1.875 10.9375 C1.69324219 10.21755859 1.51148438 9.49761719 1.32421875 8.75585938 C0.58563412 5.76542463 0 3.09200343 0 0 Z " fill="#FEE2E3" transform="translate(281,230)"/>
<path d="M0 0 C0 0.33 0 0.66 0 1 C-2.64 1.33 -5.28 1.66 -8 2 C-8.66 3.65 -9.32 5.3 -10 7 C-10.99 7 -11.98 7 -13 7 C-13.33 7.99 -13.66 8.98 -14 10 C-15.32 10 -16.64 10 -18 10 C-17.67 9.34 -17.34 8.68 -17 8 C-16.34 8.33 -15.68 8.66 -15 9 C-14.7525 8.2575 -14.505 7.515 -14.25 6.75 C-11.00618993 -0.38638216 -7.22997434 -0.55615187 0 0 Z " fill="#CE1214" transform="translate(236,160)"/>
<path d="M0 0 C0.33 0 0.66 0 1 0 C1 1.98 1 3.96 1 6 C2.65 6 4.3 6 6 6 C4.68 8.31 3.36 10.62 2 13 C1.01 12.67 0.02 12.34 -1 12 C-0.67 8.04 -0.34 4.08 0 0 Z " fill="#FDDBDB" transform="translate(219,156)"/>
<path d="M0 0 C-1.51553404 3.47775179 -3.5773456 5.9557984 -6.125 8.75 C-7.21167969 9.94882812 -7.21167969 9.94882812 -8.3203125 11.171875 C-8.87460937 11.77515625 -9.42890625 12.3784375 -10 13 C-10.33 11.68 -10.66 10.36 -11 9 C-10.34 9 -9.68 9 -9 9 C-8.896875 8.360625 -8.79375 7.72125 -8.6875 7.0625 C-8.460625 6.381875 -8.23375 5.70125 -8 5 C-7.01 4.67 -6.02 4.34 -5 4 C-4.67 3.01 -4.34 2.02 -4 1 C-2 0 -2 0 0 0 Z " fill="#D41A1A" transform="translate(399,304)"/>
<path d="M0 0 C1 2 1 2 0.375 4.375 C-1.26726456 7.51023234 -3.22918894 8.83741576 -6 11 C-7.78962819 13.61857695 -7.78962819 13.61857695 -9 16 C-9.66 15.67 -10.32 15.34 -11 15 C-9.3553057 12.68668225 -7.70930345 10.37431549 -6.0625 8.0625 C-5.59392578 7.40314453 -5.12535156 6.74378906 -4.64257812 6.06445312 C-1.11328125 1.11328125 -1.11328125 1.11328125 0 0 Z " fill="#CE1A1A" transform="translate(180,125)"/>
<path d="M0 0 C4.69564393 3.31457218 7.72469104 7.36279281 11 12 C10.01 12.495 10.01 12.495 9 13 C9 12.34 9 11.68 9 11 C7.68 10.67 6.36 10.34 5 10 C4.67 8.35 4.34 6.7 4 5 C3.01 5 2.02 5 1 5 C0.67 3.35 0.34 1.7 0 0 Z " fill="#D41A1C" transform="translate(388,116)"/>
<path d="M0 0 C0 0.99 0 1.98 0 3 C-0.99 3 -1.98 3 -3 3 C-3 3.66 -3 4.32 -3 5 C-4.65 5 -6.3 5 -8 5 C-7.67 5.99 -7.34 6.98 -7 8 C-7.99 8.33 -8.98 8.66 -10 9 C-10 8.34 -10 7.68 -10 7 C-10.99 6.67 -11.98 6.34 -13 6 C-8.71 4.02 -4.42 2.04 0 0 Z " fill="#D71414" transform="translate(237,84)"/>
<path d="M0 0 C0.33 0 0.66 0 1 0 C1.13277344 0.60328125 1.26554688 1.2065625 1.40234375 1.828125 C1.57894531 2.62734375 1.75554687 3.4265625 1.9375 4.25 C2.19853516 5.43335938 2.19853516 5.43335938 2.46484375 6.640625 C2.947556 8.76878703 3.46163178 10.88532842 4 13 C1.525 12.01 1.525 12.01 -1 11 C-1 7.21293268 -0.5745952 3.73486879 0 0 Z " fill="#D61317" transform="translate(219,264)"/>
<path d="M0 0 C2.97 1.98 2.97 1.98 6 4 C3.38058783 5.74627478 1.96175123 6.38722388 -1 7 C-1.33 6.34 -1.66 5.68 -2 5 C-1.0625 2.375 -1.0625 2.375 0 0 Z " fill="#DE0F0E" transform="translate(373,103)"/>
<path d="M0 0 C3.39417765 3.12621626 5.6062718 5.56541027 7 10 C4.525 9.01 4.525 9.01 2 8 C2 7.34 2 6.68 2 6 C1.34 5.67 0.68 5.34 0 5 C0 3.35 0 1.7 0 0 Z " fill="#D21614" transform="translate(402,133)"/>
<path d="M0 0 C0.33 0.66 0.66 1.32 1 2 C-0.21484375 4.6015625 -0.21484375 4.6015625 -1.9375 7.625 C-2.78634766 9.12933594 -2.78634766 9.12933594 -3.65234375 10.6640625 C-4.09707031 11.43492187 -4.54179687 12.20578125 -5 13 C-5.33 12.01 -5.66 11.02 -6 10 C-5.04504326 8.30712215 -4.0409066 6.64142963 -3 5 C-2.7215625 3.88625 -2.7215625 3.88625 -2.4375 2.75 C-2.2209375 1.88375 -2.2209375 1.88375 -2 1 C-1.34 0.67 -0.68 0.34 0 0 Z " fill="#CE161B" transform="translate(415,277)"/>
<path d="M0 0 C1.13732426 3.40401948 0.83989957 5.77456664 0.0625 9.25 C-0.13214844 10.14203125 -0.32679688 11.0340625 -0.52734375 11.953125 C-0.68332031 12.62859375 -0.83929688 13.3040625 -1 14 C-1.33 14 -1.66 14 -2 14 C-1.979375 12.88625 -1.95875 11.7725 -1.9375 10.625 C-1.73619282 7.16784079 -1.73619282 7.16784079 -3 5 C-2.67 4.01 -2.34 3.02 -2 2 C-1.34 2 -0.68 2 0 2 C0 1.34 0 0.68 0 0 Z " fill="#FFE7E7" transform="translate(351,170)"/>
<path d="M0 0 C2.54131358 2.30283254 4.07110295 4.67313793 5.6875 7.6875 C6.12449219 8.49574219 6.56148438 9.30398437 7.01171875 10.13671875 C7.33785156 10.75160156 7.66398437 11.36648437 8 12 C7.01 12 6.02 12 5 12 C5 11.01 5 10.02 5 9 C4.34 9 3.68 9 3 9 C0 3.375 0 3.375 0 0 Z " fill="#FEE5E3" transform="translate(278,145)"/>
<path d="M0 0 C0 0.99 0 1.98 0 3 C-0.66 3.66 -1.32 4.32 -2 5 C-1.67 5.66 -1.34 6.32 -1 7 C-1.66 7.66 -2.32 8.32 -3 9 C-5.475 8.01 -5.475 8.01 -8 7 C-7.236875 6.401875 -6.47375 5.80375 -5.6875 5.1875 C-3.6516425 3.53040668 -1.8021721 1.89702326 0 0 Z " fill="#D31215" transform="translate(258,278)"/>
<path d="M0 0 C0.33 1.32 0.66 2.64 1 4 C1.99 3.67 2.98 3.34 4 3 C4 3.99 4 4.98 4 6 C2.35 6 0.7 6 -1 6 C-1 6.66 -1 7.32 -1 8 C-1.66 8 -2.32 8 -3 8 C-1.125 2.25 -1.125 2.25 0 0 Z " fill="#D71011" transform="translate(162,152)"/>
<path d="M0 0 C-5.75 4 -5.75 4 -8 4 C-8 2.68 -8 1.36 -8 0 C-4.94736336 -0.98120464 -3.05263664 -0.98120464 0 0 Z " fill="#D31015" transform="translate(368,334)"/>
<path d="M0 0 C1.32 0.33 2.64 0.66 4 1 C3.02433888 2.16959987 2.044375 3.33561177 1.0625 4.5 C0.51722656 5.1496875 -0.02804688 5.799375 -0.58984375 6.46875 C-1.05519531 6.9740625 -1.52054688 7.479375 -2 8 C-2.33 8 -2.66 8 -3 8 C-3 6.35 -3 4.7 -3 3 C-2.01 3 -1.02 3 0 3 C0 2.01 0 1.02 0 0 Z " fill="#CE1313" transform="translate(228,131)"/>
<path d="M0 0 C2 1.5625 2 1.5625 4 4 C4.25 7.75 4.25 7.75 4 11 C3.67 10.01 3.34 9.02 3 8 C2.34 8 1.68 8 1 8 C0.67 5.36 0.34 2.72 0 0 Z " fill="#D51017" transform="translate(305,214)"/>
<path d="M0 0 C1.32 0.33 2.64 0.66 4 1 C4 1.66 4 2.32 4 3 C4.66 3 5.32 3 6 3 C5.67 4.32 5.34 5.64 5 7 C0 1.125 0 1.125 0 0 Z " fill="#D61F1F" transform="translate(183,310)"/>
<path d="M0 0 C3.96 0.33 7.92 0.66 12 1 C12 1.33 12 1.66 12 2 C10.56589632 2.24954005 9.12739928 2.47392642 7.6875 2.6875 C6.88699219 2.81511719 6.08648437 2.94273437 5.26171875 3.07421875 C3 3 3 3 0 0 Z " fill="#C8181A" transform="translate(310,286)"/>
<path d="M0 0 C0.66 1.32 1.32 2.64 2 4 C0.02 4.33 -1.96 4.66 -4 5 C-2.25 1.125 -2.25 1.125 0 0 Z " fill="#E20B0F" transform="translate(415,154)"/>
<path d="M0 0 C0.33 2.97 0.66 5.94 1 9 C-1.25245881 6.31158141 -2.88213958 4.35358125 -4 1 C-2 0 -2 0 0 0 Z " fill="#D11919" transform="translate(284,146)"/>
<path d="M0 0 C1.98 0.66 3.96 1.32 6 2 C6.33 3.98 6.66 5.96 7 8 C4.35247996 5.42215154 2.05567935 3.08351902 0 0 Z " fill="#CD1318" transform="translate(273,138)"/>
<path d="M0 0 C0.33 0.66 0.66 1.32 1 2 C2.98 1.67 4.96 1.34 7 1 C4.37801226 3.15377564 2.35595828 4.40072174 -1 5 C-0.67 3.35 -0.34 1.7 0 0 Z " fill="#CF1313" transform="translate(348,340)"/>
<path d="M0 0 C0 0.66 0 1.32 0 2 C-1.98 2.99 -3.96 3.98 -6 5 C-6 3.68 -6 2.36 -6 1 C-3 0 -3 0 0 0 Z " fill="#D80E13" transform="translate(326,128)"/>
</svg>
